<svg width="134" height="36" viewBox="0 0 134 36" fill="white" xmlns="http://www.w3.org/2000/svg">
<path d="M13.104 1.008C15.192 1.008 17.016 1.62 18.576 2.844C20.136 4.068 20.916 5.652 20.916 7.596C20.916 8.628 20.628 9.48 20.052 10.152C19.476 10.824 18.768 11.16 17.928 11.16C17.088 11.16 16.416 11.052 15.912 10.836C15.984 10.452 16.02 10.044 16.02 9.612C15.996 8.1 15.624 6.876 14.904 5.94C14.184 4.98 13.128 4.5 11.736 4.5C10.368 4.5 9.096 4.944 7.92 5.832C7.224 6.84 6.684 8.16 6.3 9.792C5.916 11.424 5.724 13.032 5.724 14.616C5.724 17.256 6.228 19.476 7.236 21.276C8.268 23.052 9.864 23.94 12.024 23.94C14.016 23.94 15.36 23.184 16.056 21.672C16.704 20.352 17.028 18.6 17.028 16.416C18.252 16.416 19.272 16.644 20.088 17.1C20.904 17.532 21.312 18.252 21.312 19.26C21.312 21.612 20.28 23.568 18.216 25.128C16.152 26.664 13.824 27.432 11.232 27.432C7.848 27.432 5.28 26.316 3.528 24.084C1.776 21.828 0.9 18.78 0.9 14.94C0.9 11.1 1.992 7.824 4.176 5.112C6.384 2.376 9.36 1.008 13.104 1.008ZM40.367 10.044C39.719 12.804 39.395 15.576 39.395 18.36C39.395 21.12 39.707 23.856 40.331 26.568C39.467 26.856 38.579 27 37.667 27C36.755 27 36.119 26.736 35.759 26.208C35.399 25.656 35.219 24.876 35.219 23.868C35.219 22.836 35.375 21.432 35.687 19.656C33.983 23.304 32.339 25.608 30.755 26.568C30.035 27 29.291 27.216 28.523 27.216C26.699 27.216 25.283 26.544 24.275 25.2C23.267 23.832 22.763 22.14 22.763 20.124C22.763 17.052 23.615 14.364 25.319 12.06C27.023 9.732 29.231 8.568 31.943 8.568C34.679 8.568 37.487 9.06 40.367 10.044ZM35.651 12.204C34.379 11.82 33.299 11.628 32.411 11.628C30.611 11.628 29.267 12.024 28.379 12.816C27.563 14.832 27.155 16.884 27.155 18.972C27.155 20.076 27.323 21.192 27.659 22.32C28.019 23.448 28.559 24.012 29.279 24.012C30.119 24.012 31.199 22.776 32.519 20.304C33.839 17.832 34.883 15.132 35.651 12.204ZM48.8242 26.568C48.0802 26.856 47.2882 27 46.4482 27C45.6082 27 44.9242 26.808 44.3962 26.424C43.8922 26.016 43.6402 25.464 43.6402 24.768C43.6402 24.048 43.7482 22.752 43.9642 20.88C44.1802 19.008 44.2882 17.196 44.2882 15.444C44.2882 13.668 44.0122 11.592 43.4602 9.216C44.2282 8.928 44.9842 8.784 45.7282 8.784C46.4722 8.784 47.1082 9.036 47.6362 9.54C48.1882 10.044 48.4642 10.716 48.4642 11.556C48.4642 11.988 48.3922 12.636 48.2482 13.5C48.1042 14.34 48.0202 14.976 47.9962 15.408C48.9322 13.272 50.0362 11.604 51.3082 10.404C52.6042 9.18 53.8882 8.568 55.1602 8.568C56.0482 8.568 56.7562 8.88 57.2842 9.504C57.8122 10.128 58.0762 10.92 58.0762 11.88C58.0762 12.816 57.8362 13.584 57.3562 14.184C56.8762 14.76 56.2762 15.048 55.5562 15.048C54.8602 15.048 54.2962 14.976 53.8642 14.832C53.9362 14.544 53.9722 14.28 53.9722 14.04C53.9722 13.056 53.6242 12.564 52.9282 12.564C51.8722 12.564 50.8762 13.632 49.9402 15.768C49.0282 17.88 48.4162 19.86 48.1042 21.708C48.2242 23.508 48.4642 25.128 48.8242 26.568ZM63.1893 20.448C63.1173 20.784 63.0813 21.06 63.0813 21.276C63.0813 22.26 63.3693 23.016 63.9453 23.544C64.5453 24.072 65.3373 24.336 66.3213 24.336C67.3293 24.336 68.1573 24.156 68.8053 23.796C69.4773 23.412 69.8133 22.848 69.8133 22.104C69.8133 21.36 69.4533 20.772 68.7333 20.34C68.0373 19.884 67.1853 19.524 66.1773 19.26C65.1933 18.996 64.1973 18.708 63.1893 18.396C62.1813 18.06 61.3173 17.544 60.5973 16.848C59.9013 16.152 59.5533 15.276 59.5533 14.22C59.5533 12.564 60.4293 11.172 62.1813 10.044C63.9333 8.916 65.7693 8.352 67.6893 8.352C69.8013 8.352 71.4093 8.784 72.5133 9.648C73.1613 10.152 73.4853 10.824 73.4853 11.664C73.4853 12.48 73.1613 13.152 72.5133 13.68C71.8893 14.184 71.1213 14.436 70.2093 14.436C70.0173 14.436 69.7773 14.412 69.4893 14.364C69.5613 14.052 69.5973 13.776 69.5973 13.536C69.5973 12.84 69.3333 12.312 68.8053 11.952C68.2773 11.592 67.5573 11.412 66.6453 11.412C65.7573 11.412 64.9413 11.592 64.1973 11.952C63.9093 12.336 63.7653 12.828 63.7653 13.428C63.7653 14.028 64.1133 14.52 64.8093 14.904C65.5053 15.264 66.3453 15.588 67.3293 15.876C68.3373 16.14 69.3453 16.452 70.3533 16.812C71.3613 17.148 72.2133 17.688 72.9093 18.432C73.6053 19.152 73.9533 20.064 73.9533 21.168C73.9533 22.968 73.0533 24.468 71.2533 25.668C69.4773 26.844 67.6413 27.432 65.7453 27.432C63.8493 27.432 62.2773 27.096 61.0293 26.424C59.8053 25.728 59.1933 24.684 59.1933 23.292C59.1933 22.428 59.5053 21.732 60.1293 21.204C60.7773 20.652 61.5573 20.376 62.4693 20.376C62.6613 20.376 62.9013 20.4 63.1893 20.448ZM93.0001 12.456L92.6401 20.376C92.6401 22.488 92.9881 24.624 93.6841 26.784C92.9401 27.072 92.1841 27.216 91.4161 27.216C89.3281 27.216 88.2841 26.112 88.2841 23.904C88.2841 22.272 88.4281 20.352 88.7161 18.144C89.0041 15.936 89.1481 14.58 89.1481 14.076C89.1481 12.828 88.5841 12.204 87.4561 12.204C86.2561 12.204 84.9241 13.332 83.4601 15.588C81.9961 17.82 81.1561 19.692 80.9401 21.204C80.9881 21.9 81.2281 23.688 81.6601 26.568C80.9161 26.856 80.1001 27 79.2121 27C77.3641 27 76.4401 26.1 76.4401 24.3C76.4401 23.436 76.5721 21.744 76.8361 19.224C77.1001 16.68 77.2321 14.64 77.2321 13.104C77.2321 7.992 76.9441 3.768 76.3681 0.431999C77.1361 0.143998 77.9281 -2.14577e-06 78.7441 -2.14577e-06C79.5601 -2.14577e-06 80.2321 0.275998 80.7601 0.827998C81.3121 1.356 81.5881 2.088 81.5881 3.024C81.5881 3.96 81.4561 5.892 81.1921 8.82C80.9521 11.748 80.8321 14.028 80.8321 15.66C81.6721 13.884 82.8961 12.264 84.5041 10.8C86.1361 9.312 87.7561 8.568 89.3641 8.568C91.7881 8.568 93.0001 9.864 93.0001 12.456ZM103.908 27.432C101.268 27.432 99.3244 26.664 98.0764 25.128C96.8284 23.568 96.2044 21.408 96.2044 18.648C96.2044 15.864 97.0324 13.452 98.6884 11.412C100.344 9.372 102.468 8.352 105.06 8.352C110.388 8.352 113.052 11.352 113.052 17.352C113.052 20.16 112.188 22.548 110.46 24.516C108.732 26.46 106.548 27.432 103.908 27.432ZM101.316 12.312C100.884 13.704 100.668 15.096 100.668 16.488C100.668 17.88 100.716 18.96 100.812 19.728C100.908 20.496 101.088 21.264 101.352 22.032C101.904 23.592 102.984 24.372 104.592 24.372C106.224 24.372 107.292 23.94 107.796 23.076C108.324 22.212 108.588 20.88 108.588 19.08C108.588 13.968 107.376 11.412 104.952 11.412C103.56 11.412 102.348 11.712 101.316 12.312ZM120.528 23.472C121.512 23.832 122.652 24.012 123.948 24.012C125.244 24.012 126.384 23.76 127.368 23.256C128.544 21.24 129.132 18.828 129.132 16.02C129.132 13.188 128.64 11.772 127.656 11.772C126.432 11.772 125.052 13.008 123.516 15.48C122.004 17.952 121.008 20.616 120.528 23.472ZM120.528 16.092C123.072 11.076 125.892 8.568 128.988 8.568C130.62 8.568 131.784 9.24 132.48 10.584C133.2 11.904 133.56 13.584 133.56 15.624C133.56 18.552 132.696 21.216 130.968 23.616C129.24 26.016 127.068 27.216 124.452 27.216C122.964 27.216 121.608 26.976 120.384 26.496C120.432 29.784 120.636 32.796 120.996 35.532C120.228 35.82 119.436 35.964 118.62 35.964C117.804 35.964 117.132 35.688 116.604 35.136C116.076 34.608 115.812 33.792 115.812 32.688C115.812 31.584 115.956 29.7 116.244 27.036C116.532 24.372 116.676 22.284 116.676 20.772C116.676 15.78 116.412 11.928 115.884 9.216C116.652 8.928 117.456 8.784 118.296 8.784C119.16 8.784 119.82 9.036 120.276 9.54C120.756 10.02 120.996 10.788 120.996 11.844C120.996 12.876 120.84 14.292 120.528 16.092Z" fill="white"/>
</svg>
